<svg width="210" height="210" viewBox="0 0 210 210" fill="none" xmlns="http://www.w3.org/2000/svg">
<rect x="5" y="5" width="90" height="90" rx="25" stroke="#181818" stroke-width="10"/>
<rect x="5" y="115" width="90" height="90" rx="25" stroke="#181818" stroke-width="10"/>
<rect x="115" y="5" width="90" height="90" rx="25" stroke="#181818" stroke-width="10"/>
<path fill-rule="evenodd" clip-rule="evenodd" d="M160 110C132.386 110 110 132.386 110 160C110 187.614 132.386 210 160 210C187.614 210 210 187.614 210 160C210 132.386 187.614 110 160 110ZM165 145C165 142.239 162.761 140 160 140C157.239 140 155 142.239 155 145V155H145C142.239 155 140 157.239 140 160C140 162.761 142.239 165 145 165H155V175C155 177.761 157.239 180 160 180C162.761 180 165 177.761 165 175V165H175C177.761 165 180 162.761 180 160C180 157.239 177.761 155 175 155H165V145Z" fill="#181818" fill-opacity="0.3"/>
</svg>
